<?xml version="1.0" encoding="utf-8"?>
<!-- Generator: Adobe Illustrator 16.0.0, SVG Export Plug-In . SVG Version: 6.00 Build 0)  -->
<!DOCTYPE svg PUBLIC "-//W3C//DTD SVG 1.1//EN" "http://www.w3.org/Graphics/SVG/1.1/DTD/svg11.dtd">
<svg version="1.1" xmlns="http://www.w3.org/2000/svg" xmlns:xlink="http://www.w3.org/1999/xlink" x="0px" y="0px" width="864px"
	 height="576px" viewBox="0 0 864 576" enable-background="new 0 0 864 576" xml:space="preserve">
<g id="Layer_1">
	<g>
		<g>
			<path fill="#0081C8" d="M395.383,225.505h-15.095v-5.365h36.367v5.365h-15.096v38.674h-6.176V225.505z"/>
			<path fill="#0081C8" d="M421.704,220.141h6.05v16.156c0,1.497-0.124,2.62-0.124,2.62h0.124c1.373-3.056,5.366-7.048,11.665-7.048
				c7.424,0,10.854,4.054,10.854,12.101v20.21h-6.051v-18.838c0-4.429-0.936-7.922-5.988-7.922c-4.74,0-8.669,3.244-9.98,7.797
				c-0.374,1.248-0.499,2.682-0.499,4.179v14.784h-6.05V220.141z"/>
			<path fill="#0081C8" d="M472.912,231.868c8.92,0,13.66,6.612,13.66,14.783c0,0.811-0.188,2.62-0.188,2.62h-23.018
				c0.313,6.924,5.24,10.417,10.855,10.417c5.426,0,9.355-3.68,9.355-3.68l2.496,4.429c0,0-4.68,4.491-12.227,4.491
				c-9.918,0-16.717-7.173-16.717-16.53C457.131,238.355,463.93,231.868,472.912,231.868z M480.396,244.718
				c-0.186-5.427-3.555-8.047-7.609-8.047c-4.615,0-8.359,2.87-9.232,8.047H480.396z"/>
			<path fill="#F7941E" d="M385.252,272.317h9.498v8.518h-9.498V272.317z M385.252,287.393h9.573v38.443h-9.573V287.393z"/>
			<path fill="#F7941E" d="M420.151,286.488c8.442,0,11.08,4.899,11.08,4.899h0.151c0,0-0.075-0.979-0.075-2.186v-16.885h9.572
				v53.519h-9.044v-3.166c0-1.432,0.15-2.487,0.15-2.487h-0.15c0,0-3.241,6.558-12.061,6.558c-10.402,0-17.035-8.216-17.035-20.126
				C402.739,294.403,409.975,286.488,420.151,286.488z M421.959,318.675c4.976,0,9.648-3.618,9.648-12.136
				c0-5.955-3.166-11.834-9.572-11.834c-5.277,0-9.648,4.296-9.648,11.909C412.387,313.926,416.306,318.675,421.959,318.675z"/>
			<path fill="#F7941E" d="M468.238,286.488c11.08,0,17.035,8.065,17.035,18.241c0,1.131-0.225,3.694-0.225,3.694h-26.533
				c0.602,6.708,5.803,10.176,11.531,10.176c6.182,0,11.082-4.222,11.082-4.222l3.693,6.86c0,0-5.879,5.502-15.453,5.502
				c-12.738,0-20.654-9.196-20.654-20.126C448.715,294.78,456.781,286.488,468.238,286.488z M475.625,301.865
				c-0.15-5.201-3.391-7.989-7.613-7.989c-4.898,0-8.291,3.015-9.195,7.989H475.625z"/>
			<path fill="#F7941E" d="M512.707,301.715h1.281v-0.527c0-5.051-3.166-6.784-7.387-6.784c-5.502,0-10.553,3.693-10.553,3.693
				l-3.619-6.859c0,0,5.955-4.749,15.076-4.749c10.102,0,15.98,5.578,15.98,15.302v24.046h-8.818v-3.166
				c0-1.508,0.15-2.714,0.15-2.714h-0.15c0.074,0-2.941,6.784-11.686,6.784c-6.859,0-13.039-4.296-13.039-11.985
				C489.943,302.544,506.451,301.715,512.707,301.715z M505.395,319.278c5.051,0,8.67-5.428,8.67-10.101v-0.905h-1.658
				c-4.9,0-12.814,0.679-12.814,6.03C499.592,316.866,501.477,319.278,505.395,319.278z"/>
			<path fill="#0081C8" d="M546.623,272.619h19.447c9.725,0,16.734,6.558,16.734,16.658s-7.01,16.885-16.734,16.885h-11.984v19.674
				h-7.463V272.619z M564.863,299.68c6.408,0,10.328-3.995,10.328-10.402s-3.92-10.176-10.252-10.176h-10.854v20.578H564.863z"/>
			<path fill="#0081C8" d="M608.654,286.79c11.383,0,20.578,8.367,20.578,19.899c0,11.608-9.195,20.051-20.578,20.051
				s-20.578-8.442-20.578-20.051C588.076,295.157,597.271,286.79,608.654,286.79z M608.654,320.409
				c7.236,0,13.115-5.729,13.115-13.72c0-7.914-5.879-13.567-13.115-13.567c-7.16,0-13.115,5.653-13.115,13.567
				C595.539,314.68,601.494,320.409,608.654,320.409z"/>
			<path fill="#0081C8" d="M652.672,286.79c8.818,0,11.758,6.03,11.758,6.03h0.152c0,0-0.152-1.131-0.152-2.563v-17.638h7.313
				v53.217h-6.936v-3.618c0-1.508,0.076-2.563,0.076-2.563h-0.15c0,0-3.092,7.085-12.514,7.085
				c-10.326,0-16.809-8.141-16.809-19.975C635.41,294.629,642.57,286.79,652.672,286.79z M653.65,320.409
				c5.654,0,11.006-3.995,11.006-13.72c0-6.784-3.543-13.567-10.779-13.567c-6.029,0-11.004,4.975-11.004,13.644
				C642.873,315.057,647.32,320.409,653.65,320.409z"/>
		</g>
		<g>
			<path fill="#F7941E" d="M386.036,351.87l7.352-13.412h2.09l2.185,13.412h-1.881l-0.589-3.856h-5.053l-2.089,3.856H386.036z
				 M395.003,346.456l-0.665-4.256c-0.095-0.684-0.19-1.899-0.19-1.899h-0.038c0,0-0.513,1.216-0.874,1.899l-2.318,4.256H395.003z"
				/>
			<path fill="#F7941E" d="M405.258,342.029c2.527,0,3.628,1.387,3.628,1.387l-1.026,1.197c0,0-0.912-0.988-2.507-0.988
				c-2.166,0-4.142,1.843-4.142,4.161c0,1.596,1.102,2.716,2.812,2.716c1.786,0,3.229-1.291,3.229-1.291l0.513,1.462
				c0,0-1.558,1.425-3.914,1.425c-2.773,0-4.521-1.709-4.521-4.179C399.331,344.651,402.085,342.029,405.258,342.029z"/>
			<path fill="#F7941E" d="M415.627,342.029c2.527,0,3.628,1.387,3.628,1.387l-1.026,1.197c0,0-0.912-0.988-2.507-0.988
				c-2.166,0-4.142,1.843-4.142,4.161c0,1.596,1.102,2.716,2.812,2.716c1.786,0,3.229-1.291,3.229-1.291l0.513,1.462
				c0,0-1.558,1.425-3.914,1.425c-2.773,0-4.521-1.709-4.521-4.179C409.7,344.651,412.455,342.029,415.627,342.029z"/>
			<path fill="#F7941E" d="M425.674,342.029c2.489,0,3.667,1.482,3.667,3.553c0,0.779-0.304,1.748-0.304,1.748h-7.01
				c-0.038,0.189-0.057,0.38-0.057,0.569c0,1.425,0.931,2.603,2.736,2.603c1.653,0,3.059-1.12,3.059-1.12l0.532,1.463
				c0,0-1.596,1.253-3.667,1.253c-2.812,0-4.541-1.709-4.541-4.103C420.088,344.803,422.444,342.029,425.674,342.029z
				 M427.459,345.943c0,0,0.038-0.209,0.038-0.514c0-1.291-0.779-1.938-1.862-1.938c-1.406,0-2.717,0.931-3.306,2.451H427.459z"/>
			<path fill="#F7941E" d="M430.8,349.115l2.071-10.657h1.842l-1.994,10.335c-0.057,0.266-0.095,0.513-0.095,0.722
				c0,0.703,0.457,0.778,0.855,0.778c0.171,0,0.304-0.019,0.304-0.019l-0.342,1.634c0,0-0.266,0.038-0.551,0.038
				c-1.007,0-2.185-0.38-2.185-2.014C430.705,349.704,430.743,349.42,430.8,349.115z"/>
			<path fill="#F7941E" d="M441.151,342.029c2.489,0,3.667,1.482,3.667,3.553c0,0.779-0.304,1.748-0.304,1.748h-7.011
				c-0.037,0.189-0.057,0.38-0.057,0.569c0,1.425,0.931,2.603,2.735,2.603c1.653,0,3.059-1.12,3.059-1.12l0.532,1.463
				c0,0-1.596,1.253-3.666,1.253c-2.813,0-4.541-1.709-4.541-4.103C435.566,344.803,437.922,342.029,441.151,342.029z
				 M442.938,345.943c0,0,0.038-0.209,0.038-0.514c0-1.291-0.779-1.938-1.861-1.938c-1.406,0-2.717,0.931-3.306,2.451H442.938z"/>
			<path fill="#F7941E" d="M447.723,342.258h1.785l-0.342,1.672c-0.076,0.398-0.19,0.778-0.19,0.778h0.02
				c0.646-1.367,1.957-2.564,3.477-2.564c0.247,0,0.456,0.019,0.569,0.038l-0.36,1.823c-0.133-0.037-0.285-0.057-0.513-0.057
				c-1.768,0-3.363,2.185-3.8,4.427l-0.665,3.495h-1.843L447.723,342.258z"/>
			<path fill="#F7941E" d="M459.023,345.867h0.475c0.076-0.38,0.076-0.608,0.076-0.779c0-0.893-0.438-1.501-1.729-1.501
				c-1.482,0-2.869,0.912-2.869,0.912l-0.494-1.463c0,0,1.596-1.007,3.629-1.007c1.843,0,3.344,0.779,3.344,2.85
				c0,0.304-0.038,0.703-0.114,1.064l-1.159,5.927h-1.709l0.189-0.969c0.076-0.438,0.19-0.76,0.209-0.76h-0.038
				c0.02,0-1.158,1.956-3.344,1.956c-1.52,0-2.868-0.873-2.868-2.432C452.621,346.551,456.421,345.867,459.023,345.867z
				 M456.041,350.616c1.538,0,2.812-1.614,3.153-3.039l0.076-0.323h-0.476c-1.349,0-4.293,0.152-4.293,2.108
				C454.502,350.027,454.977,350.616,456.041,350.616z"/>
			<path fill="#F7941E" d="M463.921,348.166l0.836-4.313h-1.254l0.285-1.501h1.292l0.551-2.735h1.786l-0.551,2.735h2.317
				l-0.285,1.501h-2.317l-0.798,4.198c-0.058,0.285-0.076,0.57-0.076,0.76c0,1.311,0.874,1.501,1.577,1.501
				c0.322,0,0.551-0.038,0.551-0.038l-0.323,1.634c0,0-0.304,0.038-0.607,0.038c-1.482,0-3.097-0.532-3.097-2.812
				C463.808,348.85,463.846,348.526,463.921,348.166z"/>
			<path fill="#F7941E" d="M475.279,342.029c2.489,0,3.667,1.482,3.667,3.553c0,0.779-0.304,1.748-0.304,1.748h-7.011
				c-0.037,0.189-0.057,0.38-0.057,0.569c0,1.425,0.931,2.603,2.735,2.603c1.653,0,3.059-1.12,3.059-1.12l0.532,1.463
				c0,0-1.596,1.253-3.666,1.253c-2.813,0-4.541-1.709-4.541-4.103C469.694,344.803,472.05,342.029,475.279,342.029z
				 M477.065,345.943c0,0,0.038-0.209,0.038-0.514c0-1.291-0.779-1.938-1.861-1.938c-1.406,0-2.717,0.931-3.306,2.451H477.065z"/>
			<path fill="#F7941E" d="M484.679,354.264c0.816,0,1.5-0.513,2.032-1.387l0.703-1.14l-2.204-9.479h1.919l1.292,6.497
				c0.095,0.493,0.152,1.14,0.152,1.14h0.019c0,0,0.285-0.627,0.551-1.102l3.609-6.535h2.071l-6.744,11.379
				c-0.894,1.501-2.109,2.223-3.325,2.223c-1.178,0-1.976-0.627-1.976-0.627l0.855-1.311
				C483.634,353.922,484.032,354.264,484.679,354.264z"/>
			<path fill="#F7941E" d="M500.634,342.029c2.679,0,4.559,1.71,4.559,4.198c0,3.344-2.963,5.87-5.927,5.87
				c-2.697,0-4.578-1.729-4.578-4.236C494.688,344.557,497.613,342.029,500.634,342.029z M499.284,350.502
				c1.977,0,4.028-1.805,4.028-4.179c0-1.596-1.121-2.698-2.698-2.698c-2.032,0-4.046,1.805-4.046,4.161
				C496.568,349.4,497.688,350.502,499.284,350.502z"/>
			<path fill="#F7941E" d="M506.88,348.337l1.178-6.079h1.843l-1.102,5.661c-0.076,0.418-0.114,0.798-0.114,1.102
				c0,0.836,0.342,1.368,1.443,1.368c1.919,0,3.477-1.881,3.838-3.762l0.854-4.369h1.843l-1.861,9.612h-1.805l0.228-1.121
				c0.095-0.456,0.247-0.911,0.247-0.911h-0.038c-0.532,0.931-1.957,2.26-3.895,2.26c-1.501,0-2.792-0.684-2.792-2.545
				C506.747,349.173,506.804,348.773,506.88,348.337z"/>
			<path fill="#F7941E" d="M519.529,342.258h1.785l-0.342,1.672c-0.076,0.398-0.19,0.778-0.19,0.778h0.02
				c0.646-1.367,1.957-2.564,3.477-2.564c0.247,0,0.456,0.019,0.569,0.038l-0.36,1.823c-0.133-0.037-0.285-0.057-0.513-0.057
				c-1.768,0-3.363,2.185-3.8,4.427l-0.665,3.495h-1.843L519.529,342.258z"/>
			<path fill="#F7941E" d="M532.234,338.458h1.843l-0.836,4.351c-0.095,0.456-0.247,0.874-0.247,0.874h0.038
				c0.684-0.969,1.919-1.653,3.191-1.653c2.299,0,3.609,1.539,3.609,3.952c0,3.628-2.584,6.116-5.262,6.116
				c-1.292,0-2.451-0.589-2.926-1.747h-0.038c0,0,0,0.36-0.076,0.778l-0.152,0.741h-1.747L532.234,338.458z M534.399,350.502
				c1.653,0,3.553-1.634,3.553-4.388c0-1.539-0.816-2.47-2.165-2.47c-1.995,0-3.534,2.128-3.534,4.426
				C532.253,349.4,532.899,350.502,534.399,350.502z"/>
			<path fill="#F7941E" d="M541.559,348.337l1.178-6.079h1.843l-1.102,5.661c-0.076,0.418-0.114,0.798-0.114,1.102
				c0,0.836,0.342,1.368,1.443,1.368c1.919,0,3.477-1.881,3.838-3.762l0.854-4.369h1.843l-1.861,9.612h-1.805l0.228-1.121
				c0.095-0.456,0.247-0.911,0.247-0.911h-0.038c-0.532,0.931-1.956,2.26-3.895,2.26c-1.501,0-2.792-0.684-2.792-2.545
				C541.426,349.173,541.482,348.773,541.559,348.337z"/>
			<path fill="#F7941E" d="M552.802,349.495c0,0,0.95,1.045,2.659,1.045c0.894,0,1.938-0.475,1.938-1.425
				c0-1.463-4.218-1.329-4.218-4.122c0-1.881,1.861-2.964,3.686-2.964c2.108,0,3.135,1.064,3.135,1.064l-0.912,1.272
				c0,0-0.722-0.779-2.241-0.779c-0.836,0-1.919,0.399-1.919,1.388c0,1.462,4.236,1.329,4.236,4.141
				c0,1.767-1.653,2.982-3.705,2.982c-2.374,0-3.666-1.387-3.666-1.387L552.802,349.495z"/>
			<path fill="#F7941E" d="M562.64,342.258h1.843l-1.881,9.612h-1.843L562.64,342.258z M563.342,338.458h1.9l-0.38,1.881h-1.881
				L563.342,338.458z"/>
			<path fill="#F7941E" d="M567.35,342.258h1.805l-0.209,1.12c-0.096,0.456-0.267,0.912-0.267,0.912h0.038
				c0.513-0.949,2.052-2.261,3.971-2.261c1.71,0,2.812,0.798,2.812,2.546c0,0.361-0.057,0.779-0.133,1.216l-1.178,6.079h-1.843
				l1.102-5.68c0.076-0.399,0.133-0.761,0.133-1.083c0-0.95-0.551-1.387-1.425-1.387c-1.938,0-3.59,1.747-3.989,3.761l-0.836,4.389
				h-1.843L567.35,342.258z"/>
			<path fill="#F7941E" d="M582.676,342.029c2.489,0,3.667,1.482,3.667,3.553c0,0.779-0.304,1.748-0.304,1.748h-7.011
				c-0.037,0.189-0.057,0.38-0.057,0.569c0,1.425,0.931,2.603,2.735,2.603c1.653,0,3.059-1.12,3.059-1.12l0.532,1.463
				c0,0-1.596,1.253-3.666,1.253c-2.813,0-4.541-1.709-4.541-4.103C577.091,344.803,579.446,342.029,582.676,342.029z
				 M584.462,345.943c0,0,0.038-0.209,0.038-0.514c0-1.291-0.779-1.938-1.861-1.938c-1.406,0-2.717,0.931-3.306,2.451H584.462z"/>
			<path fill="#F7941E" d="M587.841,349.495c0,0,0.95,1.045,2.659,1.045c0.894,0,1.938-0.475,1.938-1.425
				c0-1.463-4.218-1.329-4.218-4.122c0-1.881,1.861-2.964,3.686-2.964c2.108,0,3.135,1.064,3.135,1.064l-0.912,1.272
				c0,0-0.722-0.779-2.241-0.779c-0.836,0-1.919,0.399-1.919,1.388c0,1.462,4.236,1.329,4.236,4.141
				c0,1.767-1.653,2.982-3.705,2.982c-2.374,0-3.666-1.387-3.666-1.387L587.841,349.495z"/>
			<path fill="#F7941E" d="M596.272,349.495c0,0,0.95,1.045,2.659,1.045c0.894,0,1.938-0.475,1.938-1.425
				c0-1.463-4.218-1.329-4.218-4.122c0-1.881,1.861-2.964,3.686-2.964c2.108,0,3.135,1.064,3.135,1.064l-0.912,1.272
				c0,0-0.722-0.779-2.241-0.779c-0.836,0-1.919,0.399-1.919,1.388c0,1.462,4.236,1.329,4.236,4.141
				c0,1.767-1.653,2.982-3.705,2.982c-2.374,0-3.666-1.387-3.666-1.387L596.272,349.495z"/>
			<path fill="#F7941E" d="M612.131,354.264c1.652,0,3.172-0.76,3.552-2.697l0.152-0.703c0.057-0.304,0.171-0.665,0.171-0.665
				h-0.019c-0.722,0.988-1.653,1.558-2.964,1.558c-2.355,0-3.666-1.614-3.666-3.895c0-2.679,1.805-5.832,5.072-5.832
				c1.178,0,2.45,0.361,2.925,1.521h0.038c0,0,0-0.209,0.038-0.399l0.171-0.893h1.748l-1.805,9.347
				c-0.627,3.172-3.04,4.255-5.319,4.255c-1.786,0-2.944-0.569-3.457-0.854l0.798-1.368
				C609.566,353.637,610.611,354.264,612.131,354.264z M613.479,350.16c2.223,0,3.306-2.526,3.306-4.464
				c0-1.577-0.988-2.071-2.204-2.071c-2.146,0-3.344,2.071-3.344,4.104C611.237,349.211,612.017,350.16,613.479,350.16z"/>
			<path fill="#F7941E" d="M622.216,342.258h1.785l-0.342,1.672c-0.076,0.398-0.19,0.778-0.19,0.778h0.02
				c0.646-1.367,1.957-2.564,3.477-2.564c0.247,0,0.456,0.019,0.569,0.038l-0.36,1.823c-0.133-0.037-0.285-0.057-0.513-0.057
				c-1.768,0-3.363,2.185-3.8,4.427l-0.665,3.495h-1.843L622.216,342.258z"/>
			<path fill="#F7941E" d="M633.555,342.029c2.678,0,4.559,1.71,4.559,4.198c0,3.344-2.963,5.87-5.927,5.87
				c-2.697,0-4.578-1.729-4.578-4.236C627.608,344.557,630.534,342.029,633.555,342.029z M632.205,350.502
				c1.977,0,4.027-1.805,4.027-4.179c0-1.596-1.12-2.698-2.697-2.698c-2.032,0-4.046,1.805-4.046,4.161
				C629.489,349.4,630.609,350.502,632.205,350.502z"/>
			<path fill="#F7941E" d="M639.99,342.258h1.843l0.685,6.781c0.057,0.476,0.038,1.026,0.038,1.026h0.037
				c0,0,0.229-0.551,0.456-1.026l3.382-6.763h1.71l0.74,6.763c0.038,0.399,0.058,1.026,0.058,1.026h0.038
				c0,0,0.189-0.532,0.437-1.026l3.344-6.781h1.976l-4.958,9.612h-2.033l-0.798-6.212c-0.057-0.494-0.057-1.026-0.057-1.026h-0.038
				c0,0-0.228,0.532-0.475,1.026l-3.173,6.212h-1.995L639.99,342.258z"/>
			<path fill="#F7941E" d="M655.754,348.166l0.836-4.313h-1.254l0.285-1.501h1.292l0.551-2.735h1.786l-0.551,2.735h2.317
				l-0.285,1.501h-2.317l-0.798,4.198c-0.058,0.285-0.076,0.57-0.076,0.76c0,1.311,0.874,1.501,1.577,1.501
				c0.322,0,0.551-0.038,0.551-0.038l-0.323,1.634c0,0-0.304,0.038-0.607,0.038c-1.482,0-3.097-0.532-3.097-2.812
				C655.641,348.85,655.679,348.526,655.754,348.166z"/>
			<path fill="#F7941E" d="M663.94,338.458h1.843l-0.95,4.92c-0.095,0.456-0.209,0.855-0.209,0.855h0.038
				c0.513-0.931,1.995-2.204,3.875-2.204c1.729,0,2.831,0.798,2.831,2.546c0,0.361-0.057,0.779-0.152,1.216l-1.178,6.079h-1.843
				l1.103-5.68c0.075-0.399,0.133-0.761,0.133-1.083c0-0.95-0.551-1.387-1.425-1.387c-1.919,0-3.591,1.747-3.971,3.761l-0.854,4.389
				h-1.843L663.94,338.458z"/>
		</g>
	</g>
</g>
<g id="Layer_2">
	<g>
		<path fill="#0081C8" d="M266.697,364.354c-0.068,0-0.136-0.003-0.205-0.008c-1.376-0.112-2.401-1.318-2.29-2.694
			c0.994-12.266-4.348-12.712-13.199-13.451c-1.683-0.141-3.422-0.286-5.137-0.542c-4.535-0.678-7.597-2.452-9.103-5.274
			c-1.465-2.746-1.277-6.357,0.529-10.17c0.495-1.045,1.054-2.225,1.026-2.618c0-0.004-0.065-0.405-1.467-1.487
			c-1.776-1.37-2.695-2.786-2.809-4.328c-0.106-1.443,0.518-2.549,1.17-3.362c-0.989-1.08-2.273-2.828-1.953-5.438
			c0.256-2.088-0.421-3.814-1.768-4.507c-0.244-0.125-0.598-0.261-1.006-0.424c-2.335-0.933-6.244-2.495-6.753-6.049
			c-0.354-2.473,1.075-4.93,4.37-7.51c6.621-5.186,10.214-14.513,12.013-31.191c1.613-14.963,16.086-22.305,17.407-22.946
			c17.637-9.65,36.729-10.345,52.389-1.903c14.727,7.939,24.344,22.925,25.724,40.087l0.008,0.146
			c0.415,18.989-7.911,37.13-15.167,46.897c-1.116,1.501-2.165,2.993-3.179,4.437l-0.597,0.849
			c-8.905,13.953-7.333,22.804-6.577,27.058c0.113,0.635,0.204,1.165,0.249,1.589c0.145,1.373-0.851,2.604-2.224,2.748
			c-1.38,0.151-2.604-0.852-2.749-2.225c-0.035-0.33-0.111-0.742-0.199-1.238c-0.784-4.416-2.603-14.652,6.767-29.795l-0.078-0.469
			l0.863-0.744l0.454-0.646c1.033-1.471,2.102-2.991,3.258-4.546c6.774-9.117,14.547-26.035,14.183-43.731
			c-1.266-15.435-9.899-28.895-23.107-36.015c-14.158-7.632-31.533-6.932-47.672,1.919l-0.135,0.069
			c-0.129,0.061-13.295,6.471-14.646,18.996c-1.381,12.804-4.113,26.925-13.901,34.591c-2.482,1.943-2.504,2.856-2.503,2.865
			c0.075,0.327,0.77,0.96,3.659,2.114c0.555,0.222,1.034,0.413,1.435,0.619c3.261,1.675,4.965,5.34,4.446,9.563
			c-0.072,0.583,0.185,0.952,1.044,1.838c2.31,2.381,1.674,4.121,0.733,5.162c-0.128,0.142-0.264,0.284-0.403,0.429
			c-0.13,0.135-0.3,0.312-0.431,0.463c0.133,0.151,0.36,0.377,0.741,0.67c4.933,3.81,3.531,6.771,1.907,10.199
			c-0.521,1.099-1.62,3.841-0.638,5.682c0.896,1.68,3.447,2.386,5.43,2.682c1.554,0.232,3.212,0.371,4.815,0.505
			c8.537,0.713,19.163,1.601,17.766,18.838C269.08,363.364,267.986,364.354,266.697,364.354z"/>
	</g>
</g>
<g id="Layer_3">
	<g>
		<path fill="#0081C8" d="M286.04,283.666c0,0-37.251-3.248-34.194-19.868c3.056-16.619,32.093-29.61,57.31-15.473
			C334.371,262.461,316.032,288.061,286.04,283.666z"/>
	</g>
	<g>
		<ellipse fill="#0081C8" cx="293.49" cy="287.392" rx="12.226" ry="6.208"/>
	</g>
	<g>
		<ellipse fill="#0081C8" cx="298.457" cy="299.234" rx="6.113" ry="2.963"/>
	</g>
	<g>
		<g>
			<circle fill="#F7941E" cx="288.312" cy="263.12" r="12.778"/>
		</g>
		<g id="XMLID_3_">
			<path fill="#0081C8" d="M287.374,263.485h4.583v-1.849h-4.583v-0.563c0-1.849,1.098-2.787,3.136-2.787
				c1.018,0,2.036,0.188,2.84,0.698l0.938-2.466c-0.991-0.563-2.251-0.857-3.831-0.857c-3.939,0-6.217,2.063-6.217,5.467v0.508
				h-1.902v1.849h1.902v3.27h-1.902v2.492h11.576v-2.492h-6.539V263.485z"/>
		</g>
	</g>
	<g>
		<path fill="#0081C8" d="M283.288,369.836c-42.182,0-76.5-34.317-76.5-76.5c0-34.739,23.435-65.165,56.99-73.989
			c1.333-0.351,2.702,0.446,3.054,1.782c0.351,1.335-0.447,2.702-1.782,3.054c-31.359,8.247-53.261,36.684-53.261,69.153
			c0,39.425,32.075,71.5,71.5,71.5s71.5-32.075,71.5-71.5c0-29.648-17.834-55.791-45.436-66.601
			c-1.286-0.503-1.92-1.954-1.416-3.239c0.503-1.286,1.954-1.921,3.239-1.416c29.531,11.565,48.612,39.536,48.612,71.256
			C359.788,335.519,325.47,369.836,283.288,369.836z"/>
	</g>
	<g>
		<path fill="#F7941E" d="M270.922,211.316l8.111,20.431l-12.519-18.069c-0.792-1.142-0.507-2.71,0.635-3.501
			c1.143-0.792,2.71-0.507,3.501,0.636C270.76,210.968,270.853,211.146,270.922,211.316z"/>
	</g>
	<g>
		<path fill="#F7941E" d="M309.219,213.677L296.7,231.747l8.111-20.431c0.513-1.292,1.976-1.923,3.267-1.41
			c1.292,0.513,1.923,1.976,1.411,3.267C309.418,213.351,309.322,213.526,309.219,213.677z"/>
	</g>
	<g>
		<path fill="#F7941E" d="M290.388,208.328l-1.654,21.92l-3.342-21.727c-0.211-1.374,0.731-2.658,2.104-2.87s2.658,0.731,2.87,2.104
			C290.395,207.944,290.4,208.145,290.388,208.328z"/>
	</g>
</g>
</svg>
